<svg width="24" height="24" viewBox="0 0 24 24" fill="none" xmlns="http://www.w3.org/2000/svg">
<path fill-rule="evenodd" clip-rule="evenodd" d="M12 24C18.6274 24 24 18.6274 24 12C24 5.37259 18.6274 0 12 0C5.37256 0 0 5.37259 0 12C0 18.6274 5.37256 24 12 24ZM20 12C20 12 15.8 17.5 12 17.5C8.20001 17.5 4 12 4 12C4 12 8.20001 6.5 12 6.5C15.8 6.5 20 12 20 12ZM12 16C14.2092 16 16 14.2091 16 12C16 9.79086 14.2092 8 12 8C9.79083 8 8 9.79086 8 12C8 14.2091 9.79083 16 12 16ZM12 14C13.1046 14 14 13.1046 14 12C14 10.8954 13.1046 10 12 10C10.8954 10 10 10.8954 10 12C10 13.1046 10.8954 14 12 14Z" fill="#AF9188"/>
</svg>
