<svg width="32" height="32" viewBox="0 0 32 32" fill="none" xmlns="http://www.w3.org/2000/svg">
<path fill-rule="evenodd" clip-rule="evenodd" d="M16 32C24.8365 32 32 24.8365 32 16C32 7.16345 24.8365 0 16 0C7.16345 0 0 7.16345 0 16C0 24.8365 7.16345 32 16 32ZM19.65 21.43V19.36H15.24L17.67 16.84C18.042 16.492 18.384 16.12 18.696 15.724C18.96 15.388 19.2 15.016 19.416 14.608C19.632 14.188 19.74 13.762 19.74 13.33C19.74 12.862 19.65 12.424 19.47 12.016C19.302 11.608 19.05 11.254 18.714 10.954C18.378 10.654 17.97 10.42 17.49 10.252C17.022 10.084 16.482 10 15.87 10C15.282 10 14.748 10.09 14.268 10.27C13.8 10.45 13.398 10.702 13.062 11.026C12.726 11.35 12.462 11.734 12.27 12.178C12.09 12.61 12 13.084 12 13.6H14.16C14.16 13.096 14.31 12.7 14.61 12.412C14.91 12.124 15.33 11.98 15.87 11.98C16.41 11.98 16.812 12.106 17.076 12.358C17.352 12.61 17.49 12.964 17.49 13.42C17.49 13.672 17.424 13.93 17.292 14.194C17.16 14.446 17.016 14.674 16.86 14.878C16.668 15.118 16.458 15.352 16.23 15.58L12.09 19.9V21.43H19.65Z" fill="#AF9188"/>
</svg>
