<svg width="32" height="32" viewBox="0 0 32 32" fill="none" xmlns="http://www.w3.org/2000/svg">
<rect width="32" height="32" fill="black" fill-opacity="0"/>
<circle cx="16" cy="16" r="15" stroke="#AF9188" stroke-width="2"/>
<path d="M19.65 19.36V21.43H12.09V19.9L16.23 15.58C16.458 15.352 16.668 15.118 16.86 14.878C17.016 14.674 17.16 14.446 17.292 14.194C17.424 13.93 17.49 13.672 17.49 13.42C17.49 12.964 17.352 12.61 17.076 12.358C16.812 12.106 16.41 11.98 15.87 11.98C15.33 11.98 14.91 12.124 14.61 12.412C14.31 12.7 14.16 13.096 14.16 13.6H12C12 13.084 12.09 12.61 12.27 12.178C12.462 11.734 12.726 11.35 13.062 11.026C13.398 10.702 13.8 10.45 14.268 10.27C14.748 10.09 15.282 10 15.87 10C16.482 10 17.022 10.084 17.49 10.252C17.97 10.42 18.378 10.654 18.714 10.954C19.05 11.254 19.302 11.608 19.47 12.016C19.65 12.424 19.74 12.862 19.74 13.33C19.74 13.762 19.632 14.188 19.416 14.608C19.2 15.016 18.96 15.388 18.696 15.724C18.384 16.12 18.042 16.492 17.67 16.84L15.24 19.36H19.65Z" fill="#AF9188"/>
</svg>
