<svg width="32" height="32" viewBox="0 0 32 32" fill="none" xmlns="http://www.w3.org/2000/svg">
<path fill-rule="evenodd" clip-rule="evenodd" d="M16 32C24.8365 32 32 24.8365 32 16C32 7.16345 24.8365 0 16 0C7.16345 0 0 7.16345 0 16C0 24.8365 7.16345 32 16 32ZM12.414 12.016C12.222 12.4 12.114 12.808 12.09 13.24H14.25C14.298 12.928 14.466 12.64 14.754 12.376C15.054 12.112 15.456 11.98 15.96 11.98C16.464 11.98 16.86 12.118 17.148 12.394C17.436 12.67 17.58 13.012 17.58 13.42C17.58 13.828 17.442 14.158 17.166 14.41C16.89 14.65 16.458 14.77 15.87 14.77H14.97V16.57H15.96C16.548 16.57 16.992 16.708 17.292 16.984C17.604 17.26 17.76 17.602 17.76 18.01C17.76 18.418 17.592 18.778 17.256 19.09C16.932 19.39 16.5 19.54 15.96 19.54C15.708 19.54 15.474 19.498 15.258 19.414C15.054 19.33 14.874 19.228 14.718 19.108C14.562 18.976 14.436 18.832 14.34 18.676C14.244 18.508 14.184 18.346 14.16 18.19H12C12.024 18.658 12.126 19.096 12.306 19.504C12.498 19.912 12.762 20.266 13.098 20.566C13.446 20.866 13.866 21.1 14.358 21.268C14.85 21.436 15.414 21.52 16.05 21.52C16.638 21.52 17.172 21.43 17.652 21.25C18.144 21.058 18.564 20.812 18.912 20.512C19.26 20.2 19.53 19.852 19.722 19.468C19.914 19.084 20.01 18.688 20.01 18.28C20.01 17.764 19.92 17.326 19.74 16.966C19.56 16.606 19.362 16.318 19.146 16.102C18.894 15.85 18.612 15.646 18.3 15.49C18.564 15.334 18.804 15.148 19.02 14.932C19.2 14.74 19.362 14.5 19.506 14.212C19.662 13.912 19.74 13.558 19.74 13.15C19.74 12.742 19.65 12.352 19.47 11.98C19.29 11.596 19.032 11.26 18.696 10.972C18.36 10.672 17.958 10.438 17.49 10.27C17.034 10.09 16.524 10 15.96 10C15.396 10 14.88 10.09 14.412 10.27C13.956 10.45 13.554 10.69 13.206 10.99C12.87 11.278 12.606 11.62 12.414 12.016Z" fill="#AF9188"/>
</svg>
