<svg width="32" height="32" viewBox="0 0 32 32" fill="none" xmlns="http://www.w3.org/2000/svg">
<rect width="32" height="32" fill="black" fill-opacity="0"/>
<circle cx="16" cy="16" r="15" stroke="#AF9188" stroke-width="2"/>
<path d="M12.09 13.24C12.114 12.808 12.222 12.4 12.414 12.016C12.606 11.62 12.87 11.278 13.206 10.99C13.554 10.69 13.956 10.45 14.412 10.27C14.88 10.09 15.396 10 15.96 10C16.524 10 17.034 10.09 17.49 10.27C17.958 10.438 18.36 10.672 18.696 10.972C19.032 11.26 19.29 11.596 19.47 11.98C19.65 12.352 19.74 12.742 19.74 13.15C19.74 13.558 19.662 13.912 19.506 14.212C19.362 14.5 19.2 14.74 19.02 14.932C18.804 15.148 18.564 15.334 18.3 15.49C18.612 15.646 18.894 15.85 19.146 16.102C19.362 16.318 19.56 16.606 19.74 16.966C19.92 17.326 20.01 17.764 20.01 18.28C20.01 18.688 19.914 19.084 19.722 19.468C19.53 19.852 19.26 20.2 18.912 20.512C18.564 20.812 18.144 21.058 17.652 21.25C17.172 21.43 16.638 21.52 16.05 21.52C15.414 21.52 14.85 21.436 14.358 21.268C13.866 21.1 13.446 20.866 13.098 20.566C12.762 20.266 12.498 19.912 12.306 19.504C12.126 19.096 12.024 18.658 12 18.19H14.16C14.184 18.346 14.244 18.508 14.34 18.676C14.436 18.832 14.562 18.976 14.718 19.108C14.874 19.228 15.054 19.33 15.258 19.414C15.474 19.498 15.708 19.54 15.96 19.54C16.5 19.54 16.932 19.39 17.256 19.09C17.592 18.778 17.76 18.418 17.76 18.01C17.76 17.602 17.604 17.26 17.292 16.984C16.992 16.708 16.548 16.57 15.96 16.57H14.97V14.77H15.87C16.458 14.77 16.89 14.65 17.166 14.41C17.442 14.158 17.58 13.828 17.58 13.42C17.58 13.012 17.436 12.67 17.148 12.394C16.86 12.118 16.464 11.98 15.96 11.98C15.456 11.98 15.054 12.112 14.754 12.376C14.466 12.64 14.298 12.928 14.25 13.24H12.09Z" fill="#AF9188"/>
</svg>
