<svg width="32" height="32" viewBox="0 0 32 32" fill="none" xmlns="http://www.w3.org/2000/svg">
<path fill-rule="evenodd" clip-rule="evenodd" d="M16 32C24.8365 32 32 24.8365 32 16C32 7.16345 24.8365 0 16 0C7.16345 0 0 7.16345 0 16C0 24.8365 7.16345 32 16 32ZM17.778 13.888C17.31 13.696 16.794 13.6 16.23 13.6C16.002 13.6 15.786 13.63 15.582 13.69C15.378 13.75 15.198 13.81 15.042 13.87C14.85 13.954 14.676 14.044 14.52 14.14L14.79 12.07H19.29V10H12.99L12.27 16.66H14.16C14.268 16.444 14.406 16.252 14.574 16.084C14.718 15.94 14.904 15.808 15.132 15.688C15.36 15.556 15.636 15.49 15.96 15.49C16.548 15.49 17.022 15.676 17.382 16.048C17.754 16.408 17.94 16.882 17.94 17.47C17.94 18.058 17.754 18.538 17.382 18.91C17.022 19.27 16.548 19.45 15.96 19.45C15.708 19.45 15.474 19.414 15.258 19.342C15.054 19.258 14.874 19.156 14.718 19.036C14.562 18.904 14.436 18.766 14.34 18.622C14.244 18.466 14.184 18.322 14.16 18.19H12C12.048 18.622 12.174 19.036 12.378 19.432C12.582 19.816 12.852 20.158 13.188 20.458C13.536 20.746 13.944 20.98 14.412 21.16C14.88 21.34 15.396 21.43 15.96 21.43C16.572 21.43 17.13 21.328 17.634 21.124C18.138 20.92 18.57 20.644 18.93 20.296C19.302 19.936 19.59 19.516 19.794 19.036C19.998 18.556 20.1 18.034 20.1 17.47C20.1 16.906 20.004 16.39 19.812 15.922C19.62 15.442 19.35 15.034 19.002 14.698C18.666 14.35 18.258 14.08 17.778 13.888Z" fill="#AF9188"/>
</svg>
