<svg width="32" height="32" viewBox="0 0 32 32" fill="none" xmlns="http://www.w3.org/2000/svg">
<rect width="32" height="32" fill="black" fill-opacity="0"/>
<circle cx="16" cy="16" r="15" stroke="#AF9188" stroke-width="2"/>
<path d="M16.23 13.6C16.794 13.6 17.31 13.696 17.778 13.888C18.258 14.08 18.666 14.35 19.002 14.698C19.35 15.034 19.62 15.442 19.812 15.922C20.004 16.39 20.1 16.906 20.1 17.47C20.1 18.034 19.998 18.556 19.794 19.036C19.59 19.516 19.302 19.936 18.93 20.296C18.57 20.644 18.138 20.92 17.634 21.124C17.13 21.328 16.572 21.43 15.96 21.43C15.396 21.43 14.88 21.34 14.412 21.16C13.944 20.98 13.536 20.746 13.188 20.458C12.852 20.158 12.582 19.816 12.378 19.432C12.174 19.036 12.048 18.622 12 18.19H14.16C14.184 18.322 14.244 18.466 14.34 18.622C14.436 18.766 14.562 18.904 14.718 19.036C14.874 19.156 15.054 19.258 15.258 19.342C15.474 19.414 15.708 19.45 15.96 19.45C16.548 19.45 17.022 19.27 17.382 18.91C17.754 18.538 17.94 18.058 17.94 17.47C17.94 16.882 17.754 16.408 17.382 16.048C17.022 15.676 16.548 15.49 15.96 15.49C15.636 15.49 15.36 15.556 15.132 15.688C14.904 15.808 14.718 15.94 14.574 16.084C14.406 16.252 14.268 16.444 14.16 16.66H12.27L12.99 10H19.29V12.07H14.79L14.52 14.14C14.676 14.044 14.85 13.954 15.042 13.87C15.198 13.81 15.378 13.75 15.582 13.69C15.786 13.63 16.002 13.6 16.23 13.6Z" fill="#AF9188"/>
</svg>
