<svg xmlns="http://www.w3.org/2000/svg" viewBox="0 0 13.21 22">
  <defs>
    <style>
      .cls-1 {
        fill: #af9188;
      }
    </style>
  </defs>
  <g id="odnoklassniki-logo" transform="translate(-19.074)">
    <g id="Group_414" data-name="Group 414" transform="translate(19.074 0)">
      <path id="Path_41344" data-name="Path 41344" class="cls-1" d="M24.6,52.5a8.548,8.548,0,0,1-4.56-1.628c-.163-.128-.332-.252-.481-.395A1.367,1.367,0,0,1,21.1,48.25a2.665,2.665,0,0,1,.378.223,7.476,7.476,0,0,0,8.287.076,2.247,2.247,0,0,1,.807-.418,1.267,1.267,0,0,1,1.451.579,1.229,1.229,0,0,1-.088,1.617,6.694,6.694,0,0,1-2.41,1.558,11.312,11.312,0,0,1-2.736.613c.141.153.207.229.3.317,1.267,1.273,2.539,2.54,3.8,3.817a1.257,1.257,0,0,1,.283,1.48,1.5,1.5,0,0,1-1.407.878,1.371,1.371,0,0,1-.891-.456c-.956-.962-1.93-1.906-2.867-2.886-.273-.285-.4-.231-.644.016-.962.99-1.939,1.965-2.922,2.934a1.225,1.225,0,0,1-1.479.265,1.5,1.5,0,0,1-.864-1.378,1.379,1.379,0,0,1,.463-.925q1.88-1.878,3.755-3.761C24.4,52.718,24.476,52.629,24.6,52.5Z" transform="translate(-19.074 -37.005)"/>
      <path id="Path_41345" data-name="Path 41345" class="cls-1" d="M29.113,11.135a5.568,5.568,0,1,1,5.6-5.5A5.571,5.571,0,0,1,29.113,11.135Zm2.765-5.573a2.724,2.724,0,1,0-2.706,2.731A2.712,2.712,0,0,0,31.878,5.563Z" transform="translate(-22.552 0)"/>
    </g>
  </g>
</svg>
