<svg xmlns="http://www.w3.org/2000/svg" viewBox="0 0 22 12.45">
  <defs>
    <style>
      .cls-1 {
        fill: #af9188;
        fill-rule: evenodd;
      }
    </style>
  </defs>
  <g id="vk" transform="translate(0 -66.058)">
    <path id="XMLID_807_" class="cls-1" d="M18.934,73.974a29.944,29.944,0,0,1,2.155,2.167,6.3,6.3,0,0,1,.772,1.113c.3.575.028,1.208-.488,1.242H18.168a2.474,2.474,0,0,1-2.041-.829c-.444-.452-.855-.933-1.281-1.4a3.035,3.035,0,0,0-.577-.513.67.67,0,0,0-1.067.259,3.367,3.367,0,0,0-.337,1.5c-.034.755-.262.953-1.021.988a8.2,8.2,0,0,1-4.586-.986A10.132,10.132,0,0,1,4.172,74.62,38.9,38.9,0,0,1,.111,67.38c-.256-.571-.069-.877.561-.888,1.046-.02,2.091-.019,3.138,0a.922.922,0,0,1,.87.651,19.451,19.451,0,0,0,2.127,3.941,3.361,3.361,0,0,0,.8.883.488.488,0,0,0,.83-.244,2.735,2.735,0,0,0,.185-.826A12.309,12.309,0,0,0,8.572,68a1.207,1.207,0,0,0-1.028-1.1c-.306-.058-.261-.172-.112-.347a1.152,1.152,0,0,1,.983-.489h3.622c.57.113.7.369.775.942l0,4.023c-.006.222.111.881.511,1.028.32.1.531-.152.723-.355a12.476,12.476,0,0,0,2.039-3.135c.245-.5.456-1.01.661-1.524a.776.776,0,0,1,.819-.561l3.486,0a1.839,1.839,0,0,1,.308.019c.587.1.748.353.567.926a8.7,8.7,0,0,1-1.386,2.4c-.581.8-1.2,1.581-1.78,2.391-.53.739-.488,1.111.17,1.753Zm0,0" transform="translate(0)"/>
  </g>
</svg>
