<svg width="48" height="24" viewBox="0 0 48 24" fill="none" xmlns="http://www.w3.org/2000/svg">
<rect width="48" height="24" fill="black" fill-opacity="0"/>
<path fill-rule="evenodd" clip-rule="evenodd" d="M13 18C16.3137 18 19 15.3137 19 12C19 8.68629 16.3137 6 13 6C9.68629 6 7 8.68629 7 12C7 15.3137 9.68629 18 13 18ZM20.3652 8.87152C19.1473 6.00793 16.3081 4 13 4C8.58172 4 5 7.58172 5 12C5 16.4183 8.58172 20 13 20C17.4183 20 21 16.4183 21 12C21 11.6098 20.9721 11.2262 20.9181 10.8509C21.8189 10.3106 22.8732 10 24 10C25.1268 10 26.1811 10.3106 27.0819 10.8509C27.0279 11.2262 27 11.6098 27 12C27 16.4183 30.5817 20 35 20C39.4183 20 43 16.4183 43 12C43 7.58172 39.4183 4 35 4C31.6919 4 28.8527 6.00793 27.6348 8.87152C26.5442 8.31429 25.3088 8 24 8C22.6912 8 21.4558 8.31429 20.3652 8.87152ZM29 12C29 15.3137 31.6863 18 35 18C38.3137 18 41 15.3137 41 12C41 8.68629 38.3137 6 35 6C31.6863 6 29 8.68629 29 12Z" fill="white"/>
</svg>
