<?xml version="1.0" encoding="UTF-8" standalone="no"?>
<svg
   xmlns:dc="http://purl.org/dc/elements/1.1/"
   xmlns:cc="http://creativecommons.org/ns#"
   xmlns:rdf="http://www.w3.org/1999/02/22-rdf-syntax-ns#"
   xmlns:svg="http://www.w3.org/2000/svg"
   xmlns="http://www.w3.org/2000/svg"
   version="1.1"
   id="Layer_1"
   x="0px"
   y="0px"
   viewBox="0 0 168.0036 72"
   xml:space="preserve"
   width="168.0036"
   height="72"><metadata
   id="metadata1009"><rdf:RDF><cc:Work
       rdf:about=""><dc:format>image/svg+xml</dc:format><dc:type
         rdf:resource="http://purl.org/dc/dcmitype/StillImage" /><dc:title></dc:title></cc:Work></rdf:RDF></metadata><defs
   id="defs1007" />
<style
   type="text/css"
   id="style932">
	.st0{fill:none;}
	.st1{fill:#C15430;}
	.st2{enable-background:new    ;}
	.st3{fill:#4A3E3C;}
</style>

<path
   id="Знак-2"
   class="st1"
   d="m 0.10880486,26.143177 47.70000014,-13.9 26.200002,7.5 21.9,-4.2 v 0.7 l -21.9,4.9 -25.900002,-6.2 -48.00000014,12.1 z m 7.30000004,-14 13.4000001,-1.6 7.7,-10.49999882 25.4,5.70000002 30.500002,-5.00000002 10.9,13.29999882 -2.7,0.6 -8.9,-11.1999988 -9.3,13.6999988 -33.900002,-9.2999992 v 0 l -11.1,-2.9999996 -9.5,12.7999988 -5.5,1.6 0.1,-0.2 -0.2,0.2 -5.4,-4.8 -5.4000001,9 -3.50000004,1 z"
   style="fill:#c15430" />
<g
   style="fill:#ffffff;fill-opacity:1"
   id="g1002"
   transform="translate(0.003606,-2.2932978)">
	<g
   style="fill:#ffffff;fill-opacity:1"
   id="g964"
   transform="translate(-65.091247,0.61154612)">
		<g
   class="st2"
   id="g950"
   style="enable-background:new;fill:#ffffff;fill-opacity:1"
   transform="translate(-6.8798938,-4.1810222)">
			<path
   class="st3"
   d="M 75,45.4 V 50 h -3 v -9.7 h 3 v 4 l 5,-4 h 3.8 L 78.2,44.7 84,50 h -4 z"
   id="path936"
   style="fill:#ffffff;fill-opacity:1" />
			<path
   class="st3"
   d="M 87.5,46.8 V 50 h -3 v -9.7 h 7.3 c 0.9,0 1.6,0.1 2.2,0.2 0.6,0.2 1,0.4 1.4,0.7 0.4,0.3 0.6,0.6 0.7,1 0.1,0.4 0.2,0.8 0.2,1.2 v 0.1 c 0,0.4 -0.1,0.8 -0.2,1.2 -0.1,0.4 -0.4,0.7 -0.7,1 -0.3,0.3 -0.8,0.5 -1.4,0.7 -0.6,0.2 -1.3,0.3 -2.2,0.3 h -4.3 z m 0,-2.2 h 4.2 c 0.5,0 0.8,-0.1 1.1,-0.3 0.2,-0.2 0.3,-0.4 0.3,-0.8 v 0 c 0,-0.3 -0.1,-0.6 -0.3,-0.8 -0.2,-0.2 -0.6,-0.3 -1.1,-0.3 h -4.2 z"
   id="path938"
   style="fill:#ffffff;fill-opacity:1" />
			<path
   class="st3"
   d="M 104.5,48.2 H 98.6 L 97.8,50 h -3.1 l 4.9,-9.7 h 3.9 l 5.2,9.7 h -3.3 z m -3,-5.8 -1.8,3.6 h 3.7 z"
   id="path940"
   style="fill:#ffffff;fill-opacity:1" />
			<path
   class="st3"
   d="m 114.4,50.2 c -0.9,0 -1.7,-0.1 -2.4,-0.2 -0.7,-0.2 -1.3,-0.4 -1.7,-0.6 -0.5,-0.3 -0.9,-0.6 -1.2,-0.9 -0.3,-0.3 -0.5,-0.7 -0.7,-1 -0.2,-0.3 -0.3,-0.7 -0.3,-1.1 C 108,46 108,45.7 108,45.4 V 45 c 0,-0.3 0,-0.6 0.1,-1 0.1,-0.4 0.2,-0.7 0.3,-1.1 0.2,-0.4 0.4,-0.7 0.7,-1 0.3,-0.3 0.7,-0.6 1.2,-0.9 0.5,-0.3 1.1,-0.5 1.8,-0.6 0.7,-0.2 1.5,-0.2 2.5,-0.2 h 0.5 c 0.9,0 1.7,0.1 2.4,0.2 0.7,0.1 1.3,0.3 1.7,0.5 0.4,0.2 0.9,0.5 1.2,0.7 0.3,0.3 0.5,0.6 0.7,0.8 0.2,0.3 0.3,0.6 0.3,0.8 0.1,0.3 0.1,0.5 0.1,0.7 V 44 h -3.2 c 0,-0.1 -0.1,-0.2 -0.1,-0.4 -0.1,-0.2 -0.2,-0.4 -0.5,-0.5 -0.2,-0.2 -0.6,-0.4 -1.1,-0.5 -0.5,-0.1 -1.1,-0.2 -1.8,-0.2 -0.7,0 -1.3,0.1 -1.8,0.2 -0.5,0.1 -0.8,0.3 -1.1,0.6 -0.3,0.2 -0.4,0.5 -0.5,0.8 -0.1,0.3 -0.1,0.6 -0.1,0.9 v 0.2 c 0,0.3 0.1,0.6 0.2,0.9 0.1,0.3 0.3,0.6 0.6,0.9 0.3,0.3 0.6,0.5 1.1,0.6 0.5,0.1 1,0.3 1.7,0.3 0.8,0 1.4,-0.1 1.9,-0.2 0.5,-0.1 0.8,-0.3 1.1,-0.5 0.2,-0.2 0.4,-0.4 0.5,-0.6 0.1,-0.2 0.1,-0.3 0.1,-0.4 h 3.2 v 0.1 c 0,0.2 0,0.4 -0.1,0.7 -0.1,0.3 -0.2,0.6 -0.4,0.9 -0.2,0.3 -0.4,0.6 -0.7,0.9 -0.3,0.3 -0.7,0.5 -1.2,0.8 -0.5,0.2 -1.1,0.4 -1.7,0.5 -0.7,0.1 -1.5,0.2 -2.4,0.2 z"
   id="path942"
   style="fill:#ffffff;fill-opacity:1" />
			<path
   class="st3"
   d="m 122.4,40.3 h 3 v 3.5 h 6.5 v -3.5 h 3 V 50 h -3 v -3.8 h -6.5 V 50 h -3 z"
   id="path944"
   style="fill:#ffffff;fill-opacity:1" />
			<path
   class="st3"
   d="m 145.2,48.2 h -5.9 l -0.9,1.8 h -3.1 l 4.9,-9.7 h 3.9 l 5.2,9.7 H 146 Z m -2.9,-5.8 -1.8,3.6 h 3.7 z"
   id="path946"
   style="fill:#ffffff;fill-opacity:1" />
			<path
   class="st3"
   d="M 156.6,46.6 153,50 h -3.9 l 3.9,-3.6 c -0.6,0 -1.2,-0.1 -1.7,-0.3 -0.5,-0.2 -0.8,-0.4 -1.1,-0.6 -0.3,-0.3 -0.5,-0.5 -0.6,-0.9 -0.1,-0.3 -0.2,-0.7 -0.2,-1.1 v -0.2 c 0,-0.4 0.1,-0.8 0.2,-1.1 0.1,-0.4 0.4,-0.7 0.7,-1 0.3,-0.3 0.8,-0.5 1.3,-0.7 0.5,-0.2 1.2,-0.3 2,-0.3 h 7.9 V 50 h -3 v -3.4 z m 2,-4.1 h -4.7 c -0.4,0 -0.8,0.1 -0.9,0.3 -0.2,0.2 -0.3,0.4 -0.3,0.7 v 0 c 0,0.3 0.1,0.5 0.3,0.7 0.2,0.2 0.5,0.3 0.9,0.3 h 4.7 z"
   id="path948"
   style="fill:#ffffff;fill-opacity:1" />
		</g>
		<g
   class="st2"
   id="g962"
   style="enable-background:new;fill:#ffffff;fill-opacity:1"
   transform="translate(85.922229,-20.181022)">
			<path
   class="st3"
   d="m 74.700018,56.4 h 9.7 v 2.3 h -6.7 V 66 h -3 z"
   id="path952"
   style="fill:#ffffff;fill-opacity:1" />
			<path
   class="st3"
   d="m 92.400018,56.2 c 1,0 1.9,0.1 2.6,0.2 0.7,0.2 1.3,0.4 1.9,0.6 0.5,0.3 0.9,0.6 1.2,0.9 0.3,0.3 0.5,0.7 0.7,1 0.2,0.3 0.3,0.7 0.3,1.1 0.1,0.4 0.1,0.7 0.1,1 v 0.4 c 0,0.3 0,0.6 -0.1,0.9 -0.1,0.3 -0.2,0.7 -0.3,1.1 -0.1,0.4 -0.4,0.7 -0.7,1 -0.3,0.3 -0.7,0.6 -1.2,0.9 -0.5,0.3 -1.1,0.5 -1.9,0.6 -0.8,0.1 -1.6,0.2 -2.6,0.2 h -0.6 c -1,0 -1.9,-0.1 -2.6,-0.2 -0.7,-0.1 -1.3,-0.4 -1.9,-0.6 -0.5,-0.3 -0.9,-0.6 -1.2,-0.9 -0.3,-0.3 -0.5,-0.7 -0.7,-1 -0.2,-0.3 -0.3,-0.7 -0.3,-1.1 -0.1,-0.3 -0.1,-0.7 -0.1,-0.9 V 61 c 0,-0.3 0,-0.6 0.1,-1 0.1,-0.4 0.2,-0.7 0.3,-1.1 0.1,-0.4 0.4,-0.7 0.7,-1 0.3,-0.3 0.7,-0.6 1.2,-0.9 0.5,-0.3 1.1,-0.5 1.9,-0.6 0.7,-0.2 1.6,-0.2 2.6,-0.2 z m 3.6,4.9 c 0,-0.3 -0.1,-0.6 -0.1,-0.9 -0.1,-0.3 -0.3,-0.6 -0.6,-0.8 -0.3,-0.2 -0.7,-0.5 -1.2,-0.6 -0.5,-0.2 -1.2,-0.2 -2,-0.2 -0.8,0 -1.5,0.1 -2,0.2 -0.5,0.2 -0.9,0.4 -1.2,0.6 -0.3,0.2 -0.5,0.5 -0.6,0.8 -0.1,0.3 -0.1,0.6 -0.1,0.9 v 0.2 c 0,0.3 0,0.6 0.1,0.9 0.1,0.3 0.3,0.6 0.6,0.9 0.3,0.3 0.7,0.5 1.2,0.6 0.5,0.1 1.2,0.3 2,0.3 0.8,0 1.5,-0.1 2,-0.2 0.5,-0.2 0.9,-0.4 1.2,-0.6 0.3,-0.2 0.5,-0.5 0.6,-0.8 0.1,-0.3 0.2,-0.6 0.2,-0.9 v -0.4 z"
   id="path954"
   style="fill:#ffffff;fill-opacity:1" />
			<path
   class="st3"
   d="M 103.30002,62.8 V 66 h -3 v -9.7 h 7.3 c 0.9,0 1.6,0.1 2.2,0.2 0.6,0.2 1,0.4 1.4,0.7 0.3,0.3 0.6,0.6 0.7,1 0.1,0.4 0.2,0.8 0.2,1.2 v 0.1 c 0,0.4 -0.1,0.8 -0.2,1.2 -0.1,0.4 -0.4,0.7 -0.7,1 -0.3,0.3 -0.8,0.5 -1.4,0.7 -0.6,0.2 -1.3,0.3 -2.2,0.3 h -4.3 z m 0,-2.1 h 4.2 c 0.5,0 0.8,-0.1 1.1,-0.3 0.2,-0.2 0.3,-0.4 0.3,-0.8 v 0 c 0,-0.3 -0.1,-0.6 -0.3,-0.8 -0.2,-0.2 -0.6,-0.3 -1.1,-0.3 h -4.2 z"
   id="path956"
   style="fill:#ffffff;fill-opacity:1" />
			<path
   class="st3"
   d="m 115.90002,61.5 v 4.6 h -3 v -9.7 h 3 v 4 l 5,-4 h 3.8 l -5.6,4.4 5.8,5.3 h -4 z"
   id="path958"
   style="fill:#ffffff;fill-opacity:1" />
			<path
   class="st3"
   d="m 134.50002,64.3 h -5.9 l -0.9,1.8 h -3 l 4.9,-9.7 h 3.9 l 5.2,9.7 h -3.3 z m -3,-5.8 -1.8,3.6 h 3.7 z"
   id="path960"
   style="fill:#ffffff;fill-opacity:1" />
		</g>
	</g>
	<g
   style="fill:#ffffff;fill-opacity:1"
   id="g1000"
   transform="translate(46.783278,20.945455)">
		
		
	<g
   style="fill:#ffffff;fill-opacity:1"
   id="g1031"
   transform="translate(-29.586884,-12.653323)"><g
     transform="translate(-53.7,4.2499005)"
     style="enable-background:new;fill:#ffffff;fill-opacity:1"
     id="g976"
     class="st2">
			<path
   style="fill:#ffffff;fill-opacity:1"
   id="path966"
   d="m 39.3,43.1 2.2,-2.7 h 0.8 V 46 h -0.9 v -4.1 l -2,2.6 -2,-2.6 V 46 h -0.9 v -5.6 h 0.8 z"
   class="st3" />
			<path
   style="fill:#ffffff;fill-opacity:1"
   id="path968"
   d="m 44.2,40.3 1.5,2.9 1.4,-2.9 H 48 l -2,4.2 c -0.2,0.5 -0.5,0.9 -0.8,1.1 -0.3,0.2 -0.6,0.4 -1,0.4 -0.1,0 -0.2,0 -0.3,0 -0.1,0 -0.2,0 -0.2,-0.1 h -0.1 v -0.8 c 0.1,0.1 0.3,0.1 0.5,0.1 0.3,0 0.5,-0.1 0.6,-0.2 0.1,-0.1 0.3,-0.3 0.4,-0.5 l 0.2,-0.4 -2,-3.8 z"
   class="st3" />
			<path
   style="fill:#ffffff;fill-opacity:1"
   id="path970"
   d="m 51.5,43 c 0,0 0.1,0 0.1,0 0,0 0.1,0.1 0.2,0.1 0.1,0 0.2,0.2 0.3,0.2 0.1,0 0.2,0.2 0.2,0.4 0,0.2 0.1,0.3 0.1,0.5 0,0.5 -0.2,0.9 -0.6,1.2 C 51.4,45.7 51,46 50.4,46 50.1,46 49.9,46 49.6,45.9 49.3,45.8 49.1,45.8 49,45.7 48.9,45.6 48.7,45.5 48.6,45.4 48.5,45.3 48.4,45.2 48.3,45.2 l -0.1,-0.1 0.6,-0.6 c 0,0 0,0 0.1,0.1 0.1,0.1 0.1,0.1 0.2,0.2 0.1,0.1 0.2,0.1 0.3,0.2 0.1,0.1 0.3,0.1 0.4,0.2 0.1,0.1 0.4,0.1 0.6,0.1 0.4,0 0.7,-0.1 0.9,-0.3 0.2,-0.2 0.3,-0.4 0.3,-0.7 0,-0.3 -0.1,-0.5 -0.3,-0.7 -0.2,-0.2 -0.5,-0.3 -0.9,-0.3 h -0.7 v -0.8 h 0.7 c 0.3,0 0.6,-0.1 0.8,-0.2 0.2,-0.1 0.3,-0.3 0.3,-0.5 0,-0.2 -0.1,-0.4 -0.3,-0.5 -0.2,-0.1 -0.4,-0.2 -0.8,-0.2 -0.2,0 -0.5,0.1 -0.7,0.2 -0.2,0.1 -0.4,0.2 -0.5,0.3 L 49,41.7 48.4,41.1 c 0,0 0,0 0.1,-0.1 0.1,-0.1 0.1,-0.1 0.2,-0.2 0.1,-0.1 0.3,-0.2 0.4,-0.3 0.1,-0.1 0.3,-0.1 0.5,-0.2 0.2,-0.1 0.4,-0.1 0.7,-0.1 0.6,0 1.1,0.1 1.4,0.4 0.3,0.3 0.5,0.6 0.5,1.1 0,0.2 0,0.3 -0.1,0.5 -0.1,0.2 -0.1,0.3 -0.2,0.4 -0.1,0.1 -0.2,0.2 -0.2,0.2 0,0 -0.1,0.1 -0.2,0.2 z"
   class="st3" />
			<path
   style="fill:#ffffff;fill-opacity:1"
   id="path972"
   d="M 54.8,45.1 H 58 V 46 h -4 v -5.6 h 4 v 0.8 h -3.1 v 1.5 h 2.4 v 0.8 h -2.4 v 1.6 z"
   class="st3" />
			<path
   style="fill:#ffffff;fill-opacity:1"
   id="path974"
   d="M 63.9,46 H 63 v -4 l -3.1,4 H 59.1 V 40.4 H 60 v 4 l 3.1,-4 h 0.8 z m -2.7,-7.1 c 0.1,0.1 0.2,0.2 0.4,0.2 0.2,0 0.3,-0.1 0.4,-0.2 0.1,-0.1 0.2,-0.2 0.2,-0.4 h 0.6 c 0,0.3 -0.1,0.6 -0.3,0.8 -0.2,0.2 -0.5,0.3 -0.8,0.3 -0.3,0 -0.6,-0.1 -0.8,-0.3 -0.2,-0.2 -0.3,-0.5 -0.3,-0.8 H 61 c 0,0.2 0.1,0.3 0.2,0.4 z"
   class="st3" />
		</g><g
     transform="translate(11.945722,-6.0078964)"
     style="enable-background:new;fill:#ffffff;fill-opacity:1"
     id="g998"
     class="st2">
			<path
   style="fill:#ffffff;fill-opacity:1"
   id="path978"
   d="m 9.4,53.4 c 0,0 0.1,0 0.1,0 0,0 0.1,0.1 0.2,0.1 0.1,0 0.2,0.2 0.3,0.2 0.1,0 0.2,0.2 0.2,0.4 0,0.2 0.1,0.3 0.1,0.5 0,0.5 -0.2,0.9 -0.6,1.2 -0.4,0.3 -0.9,0.5 -1.6,0.5 -0.3,0 -0.5,0 -0.8,-0.1 C 7,56.1 7,56.2 6.9,56.1 6.8,56 6.6,55.9 6.5,55.8 6.4,55.7 6.3,55.6 6.2,55.6 L 6.1,55.5 6.7,55 c 0,0 0,0 0.1,0.1 0.1,0.1 0.1,0.1 0.2,0.2 0.1,0.1 0.2,0.1 0.3,0.2 0.1,0.1 0.3,0.1 0.4,0.2 0.1,0.1 0.4,0.1 0.6,0.1 0.4,0 0.7,-0.1 0.9,-0.3 C 9.4,55.3 9.5,55.1 9.5,54.8 9.5,54.5 9.4,54.3 9.2,54.1 9,53.9 8.7,53.8 8.3,53.8 H 7.6 V 53 H 8.3 C 8.6,53 8.9,52.9 9.1,52.8 9.3,52.7 9.4,52.5 9.4,52.3 9.4,52.1 9.3,51.9 9.1,51.8 8.9,51.7 8.7,51.6 8.3,51.6 8.1,51.6 7.8,51.7 7.6,51.8 7.4,51.9 7.2,52 7.1,52.1 L 6.9,52.3 6.3,51.7 c 0,0 0,0 0.1,-0.1 C 6.5,51.5 6.5,51.5 6.6,51.4 6.7,51.3 6.9,51 7.1,51 7.3,51 7.4,50.9 7.6,50.8 7.8,50.7 8,50.7 8.3,50.7 c 0.6,0 1.1,0.1 1.4,0.4 0.3,0.3 0.5,0.6 0.5,1.1 0,0.2 0,0.3 -0.1,0.5 -0.1,0.2 -0.1,0.2 -0.2,0.3 -0.1,0.1 -0.2,0.2 -0.2,0.2 0,0 -0.2,0.1 -0.3,0.2 z"
   class="st3" />
			<path
   style="fill:#ffffff;fill-opacity:1"
   id="path980"
   d="m 11,56.4 2.3,-5.6 h 0.9 l 2.3,5.6 H 15.6 L 15,54.9 h -2.5 l -0.6,1.5 z m 2.7,-4.7 -0.9,2.3 h 1.8 z"
   class="st3" />
			<path
   style="fill:#ffffff;fill-opacity:1"
   id="path982"
   d="m 22,50.7 v 5.6 h -0.9 v -4.8 h -2.8 v 4.8 h -0.9 v -5.6 z"
   class="st3" />
			<path
   style="fill:#ffffff;fill-opacity:1"
   id="path984"
   d="m 24.2,55.6 c -0.6,-0.6 -0.9,-1.2 -0.9,-2 0,-0.8 0.3,-1.5 0.9,-2 0.6,-0.5 1.3,-0.8 2.1,-0.8 0.8,0 1.5,0.3 2.1,0.8 0.6,0.5 0.9,1.2 0.9,2 0,0.8 -0.3,1.5 -0.9,2 -0.6,0.5 -1.3,0.8 -2.1,0.8 -0.8,0 -1.5,-0.2 -2.1,-0.8 z m 0.7,-3.5 c -0.4,0.4 -0.6,0.9 -0.6,1.5 0,0.6 0.2,1.1 0.6,1.5 0.4,0.4 0.9,0.6 1.5,0.6 0.6,0 1.1,-0.2 1.5,-0.6 0.4,-0.4 0.6,-0.9 0.6,-1.5 0,-0.6 -0.2,-1.1 -0.6,-1.5 -0.4,-0.4 -0.9,-0.6 -1.5,-0.6 -0.6,0 -1.1,0.2 -1.5,0.6 z"
   class="st3" />
			<path
   style="fill:#ffffff;fill-opacity:1"
   id="path986"
   d="m 33,56.4 h -2.4 v -5.6 h 2.3 c 0.5,0 0.8,0.1 1.2,0.4 0.4,0.3 0.5,0.6 0.5,1 0,0.2 0,0.4 -0.1,0.6 -0.1,0.2 -0.2,0.3 -0.3,0.4 L 34,53.4 c 0,0 0.1,0 0.1,0.1 0,0.1 0.1,0.1 0.2,0.2 0.1,0.1 0.2,0.2 0.3,0.3 0.1,0.1 0.1,0.2 0.2,0.4 0.1,0.2 0.1,0.3 0.1,0.5 0,0.4 -0.2,0.8 -0.5,1.2 -0.3,0.4 -0.8,0.3 -1.4,0.3 z M 32.9,51.5 H 31.5 V 53 h 1.4 c 0.2,0 0.4,-0.1 0.5,-0.2 0.1,-0.1 0.2,-0.3 0.2,-0.5 0,-0.2 -0.1,-0.4 -0.2,-0.5 -0.1,-0.1 -0.3,-0.3 -0.5,-0.3 z m -1.4,4.1 H 33 c 0.3,0 0.5,-0.1 0.7,-0.3 0.2,-0.2 0.3,-0.4 0.3,-0.7 0,-0.3 -0.1,-0.5 -0.3,-0.7 -0.2,-0.2 -0.4,-0.3 -0.7,-0.3 h -1.5 z"
   class="st3" />
			<path
   style="fill:#ffffff;fill-opacity:1"
   id="path988"
   d="m 37.1,55.5 h 3.2 v 0.8 h -4 v -5.6 h 4 v 0.8 H 37.2 V 53 h 2.4 v 0.8 h -2.4 v 1.7 z"
   class="st3" />
			<path
   style="fill:#ffffff;fill-opacity:1"
   id="path990"
   d="M 40.7,55.5 H 41 c 0,0 0.1,-0.1 0.1,-0.1 0,0 0.1,-0.2 0.2,-0.3 0.1,-0.1 0.2,-0.4 0.3,-0.6 0.1,-0.2 0.2,-0.5 0.2,-0.9 0,-0.4 0.1,-0.8 0.1,-1.2 v -1.7 h 3.6 v 4.8 h 0.7 v 2 h -0.9 v -1.2 h -3.8 v 1.2 h -0.9 v -2 z m 2.1,-3.1 c 0,0.4 0,0.8 -0.1,1.2 -0.1,0.4 -0.1,0.7 -0.2,0.9 -0.1,0.2 -0.2,0.4 -0.3,0.6 -0.1,0.2 -0.2,0.3 -0.2,0.3 l -0.1,0.1 h 2.8 v -4 h -1.9 z"
   class="st3" />
			<path
   style="fill:#ffffff;fill-opacity:1"
   id="path992"
   d="m 51.9,50.7 v 5.6 H 51 v -2.4 h -2.8 v 2.4 h -0.9 v -5.6 h 0.9 v 2.4 H 51 v -2.4 z"
   class="st3" />
			<path
   style="fill:#ffffff;fill-opacity:1"
   id="path994"
   d="m 58.3,56.4 h -0.9 v -4 l -3.1,4 h -0.8 v -5.6 h 0.9 v 4 l 3.1,-4 h 0.8 z"
   class="st3" />
			<path
   style="fill:#ffffff;fill-opacity:1"
   id="path996"
   d="m 60.9,50.7 v 2.7 l 2.5,-2.7 h 1.1 l -2.2,2.3 2.3,3.3 h -1.1 l -1.8,-2.6 -0.9,1 v 1.7 H 60 v -5.6 h 0.9 z"
   class="st3" />
		</g><rect
     y="46.949898"
     x="13.199997"
     height="0.80000001"
     width="2.4000001"
     id="rect1011"
     style="opacity:1;fill:#ffffff;fill-opacity:1;stroke:none;stroke-width:40;stroke-miterlimit:4;stroke-dasharray:none;stroke-opacity:0.93333333" /></g></g>
</g>
</svg>