<?xml version="1.0" encoding="utf-8"?>
<!-- Generator: Adobe Illustrator 21.1.0, SVG Export Plug-In . SVG Version: 6.00 Build 0)  -->
<svg version="1.1" id="Layer_1" xmlns="http://www.w3.org/2000/svg" xmlns:xlink="http://www.w3.org/1999/xlink" x="0px" y="0px"
	 viewBox="0 0 168 72" style="enable-background:new 0 0 168 72;" xml:space="preserve">
<style type="text/css">
	.st0{fill:none;}
	.st1{fill:#C15430;}
	.st2{enable-background:new    ;}
	.st3{fill:#4A3E3C;}
</style>
<rect id="Rectangle_1293" x="0" class="st0" width="168" height="72"/>
<path id="Знак-2" class="st1" d="M24.2,31.1l47.7-13.9l26.2,7.5l21.9-4.2l0,0.7l-21.9,4.9l-25.9-6.2L24.2,32V31.1z M31.5,17.1
	l13.4-1.6L52.6,5L78,10.7l30.5-5L119.4,19l-2.7,0.6l-8.9-11.2l-9.3,13.7l-33.9-9.3h0l-11.1-3L44,22.6l-5.5,1.6l0.1-0.2l-0.2,0.2
	L33,19.4l-5.4,9l-3.5,1L31.5,17.1z"/>
<g>
	<g>
		<g class="st2">
			<path class="st3" d="M75,45.4V50h-3v-9.7h3v4l5-4h3.8l-5.6,4.4L84,50h-4L75,45.4z"/>
			<path class="st3" d="M87.5,46.8V50h-3v-9.7h7.3c0.9,0,1.6,0.1,2.2,0.2c0.6,0.2,1,0.4,1.4,0.7s0.6,0.6,0.7,1
				c0.1,0.4,0.2,0.8,0.2,1.2v0.1c0,0.4-0.1,0.8-0.2,1.2c-0.1,0.4-0.4,0.7-0.7,1s-0.8,0.5-1.4,0.7s-1.3,0.3-2.2,0.3H87.5z M87.5,44.6
				h4.2c0.5,0,0.8-0.1,1.1-0.3c0.2-0.2,0.3-0.4,0.3-0.8v0c0-0.3-0.1-0.6-0.3-0.8c-0.2-0.2-0.6-0.3-1.1-0.3h-4.2V44.6z"/>
			<path class="st3" d="M104.5,48.2h-5.9L97.8,50h-3.1l4.9-9.7h3.9l5.2,9.7h-3.3L104.5,48.2z M101.5,42.4L99.7,46h3.7L101.5,42.4z"
				/>
			<path class="st3" d="M114.4,50.2c-0.9,0-1.7-0.1-2.4-0.2c-0.7-0.2-1.3-0.4-1.7-0.6c-0.5-0.3-0.9-0.6-1.2-0.9s-0.5-0.7-0.7-1
				s-0.3-0.7-0.3-1.1c-0.1-0.4-0.1-0.7-0.1-1v-0.4c0-0.3,0-0.6,0.1-1c0.1-0.4,0.2-0.7,0.3-1.1c0.2-0.4,0.4-0.7,0.7-1
				c0.3-0.3,0.7-0.6,1.2-0.9c0.5-0.3,1.1-0.5,1.8-0.6c0.7-0.2,1.5-0.2,2.5-0.2h0.5c0.9,0,1.7,0.1,2.4,0.2c0.7,0.1,1.3,0.3,1.7,0.5
				s0.9,0.5,1.2,0.7c0.3,0.3,0.5,0.6,0.7,0.8c0.2,0.3,0.3,0.6,0.3,0.8c0.1,0.3,0.1,0.5,0.1,0.7v0.1h-3.2c0-0.1-0.1-0.2-0.1-0.4
				c-0.1-0.2-0.2-0.4-0.5-0.5c-0.2-0.2-0.6-0.4-1.1-0.5c-0.5-0.1-1.1-0.2-1.8-0.2c-0.7,0-1.3,0.1-1.8,0.2s-0.8,0.3-1.1,0.6
				c-0.3,0.2-0.4,0.5-0.5,0.8s-0.1,0.6-0.1,0.9v0.2c0,0.3,0.1,0.6,0.2,0.9c0.1,0.3,0.3,0.6,0.6,0.9c0.3,0.3,0.6,0.5,1.1,0.6
				s1,0.3,1.7,0.3c0.8,0,1.4-0.1,1.9-0.2s0.8-0.3,1.1-0.5c0.2-0.2,0.4-0.4,0.5-0.6c0.1-0.2,0.1-0.3,0.1-0.4h3.2v0.1
				c0,0.2,0,0.4-0.1,0.7c-0.1,0.3-0.2,0.6-0.4,0.9s-0.4,0.6-0.7,0.9c-0.3,0.3-0.7,0.5-1.2,0.8c-0.5,0.2-1.1,0.4-1.7,0.5
				c-0.7,0.1-1.5,0.2-2.4,0.2H114.4z"/>
			<path class="st3" d="M122.4,40.3h3v3.5h6.5v-3.5h3V50h-3v-3.8h-6.5V50h-3V40.3z"/>
			<path class="st3" d="M145.2,48.2h-5.9l-0.9,1.8h-3.1l4.9-9.7h3.9l5.2,9.7h-3.3L145.2,48.2z M142.3,42.4l-1.8,3.6h3.7L142.3,42.4z
				"/>
			<path class="st3" d="M156.6,46.6L153,50h-3.9l3.9-3.6c-0.6,0-1.2-0.1-1.7-0.3c-0.5-0.2-0.8-0.4-1.1-0.6c-0.3-0.3-0.5-0.5-0.6-0.9
				c-0.1-0.3-0.2-0.7-0.2-1.1v-0.2c0-0.4,0.1-0.8,0.2-1.1c0.1-0.4,0.4-0.7,0.7-1c0.3-0.3,0.8-0.5,1.3-0.7s1.2-0.3,2-0.3h7.9V50h-3
				v-3.4H156.6z M158.6,42.5h-4.7c-0.4,0-0.8,0.1-0.9,0.3c-0.2,0.2-0.3,0.4-0.3,0.7v0c0,0.3,0.1,0.5,0.3,0.7
				c0.2,0.2,0.5,0.3,0.9,0.3h4.7V42.5z"/>
		</g>
		<g class="st2">
			<path class="st3" d="M72,56.4h9.7v2.3H75v7.3h-3V56.4z"/>
			<path class="st3" d="M89.7,56.2c1,0,1.9,0.1,2.6,0.2c0.7,0.2,1.3,0.4,1.9,0.6c0.5,0.3,0.9,0.6,1.2,0.9c0.3,0.3,0.5,0.7,0.7,1
				s0.3,0.7,0.3,1.1c0.1,0.4,0.1,0.7,0.1,1v0.4c0,0.3,0,0.6-0.1,0.9s-0.2,0.7-0.3,1.1s-0.4,0.7-0.7,1c-0.3,0.3-0.7,0.6-1.2,0.9
				c-0.5,0.3-1.1,0.5-1.9,0.6s-1.6,0.2-2.6,0.2h-0.6c-1,0-1.9-0.1-2.6-0.2s-1.3-0.4-1.9-0.6c-0.5-0.3-0.9-0.6-1.2-0.9
				s-0.5-0.7-0.7-1s-0.3-0.7-0.3-1.1c-0.1-0.3-0.1-0.7-0.1-0.9V61c0-0.3,0-0.6,0.1-1c0.1-0.4,0.2-0.7,0.3-1.1s0.4-0.7,0.7-1
				c0.3-0.3,0.7-0.6,1.2-0.9c0.5-0.3,1.1-0.5,1.9-0.6c0.7-0.2,1.6-0.2,2.6-0.2H89.7z M93.3,61.1c0-0.3-0.1-0.6-0.1-0.9
				c-0.1-0.3-0.3-0.6-0.6-0.8s-0.7-0.5-1.2-0.6c-0.5-0.2-1.2-0.2-2-0.2c-0.8,0-1.5,0.1-2,0.2c-0.5,0.2-0.9,0.4-1.2,0.6
				c-0.3,0.2-0.5,0.5-0.6,0.8c-0.1,0.3-0.1,0.6-0.1,0.9v0.2c0,0.3,0,0.6,0.1,0.9s0.3,0.6,0.6,0.9s0.7,0.5,1.2,0.6s1.2,0.3,2,0.3
				c0.8,0,1.5-0.1,2-0.2c0.5-0.2,0.9-0.4,1.2-0.6s0.5-0.5,0.6-0.8c0.1-0.3,0.2-0.6,0.2-0.9V61.1z"/>
			<path class="st3" d="M100.6,62.8v3.2h-3v-9.7h7.3c0.9,0,1.6,0.1,2.2,0.2c0.6,0.2,1,0.4,1.4,0.7c0.3,0.3,0.6,0.6,0.7,1
				c0.1,0.4,0.2,0.8,0.2,1.2v0.1c0,0.4-0.1,0.8-0.2,1.2c-0.1,0.4-0.4,0.7-0.7,1s-0.8,0.5-1.4,0.7c-0.6,0.2-1.3,0.3-2.2,0.3H100.6z
				 M100.6,60.7h4.2c0.5,0,0.8-0.1,1.1-0.3c0.2-0.2,0.3-0.4,0.3-0.8v0c0-0.3-0.1-0.6-0.3-0.8c-0.2-0.2-0.6-0.3-1.1-0.3h-4.2V60.7z"
				/>
			<path class="st3" d="M113.2,61.5v4.6h-3v-9.7h3v4l5-4h3.8l-5.6,4.4l5.8,5.3h-4L113.2,61.5z"/>
			<path class="st3" d="M131.8,64.3h-5.9l-0.9,1.8H122l4.9-9.7h3.9l5.2,9.7h-3.3L131.8,64.3z M128.8,58.5l-1.8,3.6h3.7L128.8,58.5z"
				/>
		</g>
	</g>
	<g>
		<g class="st2">
			<path class="st3" d="M39.3,43.1l2.2-2.7h0.8V46h-0.9v-4.1l-2,2.6l-2-2.6V46h-0.9v-5.6h0.8L39.3,43.1z"/>
			<path class="st3" d="M44.2,40.3l1.5,2.9l1.4-2.9H48l-2,4.2c-0.2,0.5-0.5,0.9-0.8,1.1S44.6,46,44.2,46c-0.1,0-0.2,0-0.3,0
				s-0.2,0-0.2-0.1l-0.1,0v-0.8c0.1,0.1,0.3,0.1,0.5,0.1c0.3,0,0.5-0.1,0.6-0.2s0.3-0.3,0.4-0.5l0.2-0.4l-2-3.8H44.2z"/>
			<path class="st3" d="M51.5,43c0,0,0.1,0,0.1,0c0,0,0.1,0.1,0.2,0.1s0.2,0.2,0.3,0.2s0.2,0.2,0.2,0.4s0.1,0.3,0.1,0.5
				c0,0.5-0.2,0.9-0.6,1.2S51,46,50.4,46c-0.3,0-0.5,0-0.8-0.1s-0.5-0.1-0.6-0.2s-0.3-0.2-0.4-0.3s-0.2-0.2-0.3-0.2l-0.1-0.1
				l0.6-0.6c0,0,0,0,0.1,0.1s0.1,0.1,0.2,0.2s0.2,0.1,0.3,0.2s0.3,0.1,0.4,0.2s0.4,0.1,0.6,0.1c0.4,0,0.7-0.1,0.9-0.3
				s0.3-0.4,0.3-0.7s-0.1-0.5-0.3-0.7s-0.5-0.3-0.9-0.3h-0.7v-0.8h0.7c0.3,0,0.6-0.1,0.8-0.2s0.3-0.3,0.3-0.5c0-0.2-0.1-0.4-0.3-0.5
				s-0.4-0.2-0.8-0.2c-0.2,0-0.5,0.1-0.7,0.2s-0.4,0.2-0.5,0.3L49,41.7l-0.6-0.6c0,0,0,0,0.1-0.1s0.1-0.1,0.2-0.2s0.3-0.2,0.4-0.3
				s0.3-0.1,0.5-0.2s0.4-0.1,0.7-0.1c0.6,0,1.1,0.1,1.4,0.4s0.5,0.6,0.5,1.1c0,0.2,0,0.3-0.1,0.5s-0.1,0.3-0.2,0.4s-0.2,0.2-0.2,0.2
				S51.6,42.9,51.5,43L51.5,43z"/>
			<path class="st3" d="M54.8,45.1h3.2V46h-4v-5.6h4v0.8h-3.1v1.5h2.4v0.8h-2.4V45.1z"/>
			<path class="st3" d="M63.9,46h-0.9v-4l-3.1,4h-0.8v-5.6h0.9v4l3.1-4h0.8V46z M61.2,38.9c0.1,0.1,0.2,0.2,0.4,0.2s0.3-0.1,0.4-0.2
				s0.2-0.2,0.2-0.4h0.6c0,0.3-0.1,0.6-0.3,0.8s-0.5,0.3-0.8,0.3s-0.6-0.1-0.8-0.3s-0.3-0.5-0.3-0.8H61C61,38.7,61.1,38.8,61.2,38.9
				z"/>
		</g>
		<g class="st2">
			<path class="st3" d="M9.4,53.4c0,0,0.1,0,0.1,0c0,0,0.1,0.1,0.2,0.1s0.2,0.2,0.3,0.2s0.2,0.2,0.2,0.4s0.1,0.3,0.1,0.5
				c0,0.5-0.2,0.9-0.6,1.2s-0.9,0.5-1.6,0.5c-0.3,0-0.5,0-0.8-0.1S7,56.2,6.9,56.1s-0.3-0.2-0.4-0.3s-0.2-0.2-0.3-0.2l-0.1-0.1
				L6.7,55c0,0,0,0,0.1,0.1s0.1,0.1,0.2,0.2s0.2,0.1,0.3,0.2s0.3,0.1,0.4,0.2s0.4,0.1,0.6,0.1c0.4,0,0.7-0.1,0.9-0.3
				s0.3-0.4,0.3-0.7s-0.1-0.5-0.3-0.7s-0.5-0.3-0.9-0.3H7.6V53h0.7c0.3,0,0.6-0.1,0.8-0.2s0.3-0.3,0.3-0.5c0-0.2-0.1-0.4-0.3-0.5
				s-0.4-0.2-0.8-0.2c-0.2,0-0.5,0.1-0.7,0.2s-0.4,0.2-0.5,0.3l-0.2,0.2l-0.6-0.6c0,0,0,0,0.1-0.1s0.1-0.1,0.2-0.2S6.9,51,7.1,51
				s0.3-0.1,0.5-0.2s0.4-0.1,0.7-0.1c0.6,0,1.1,0.1,1.4,0.4s0.5,0.6,0.5,1.1c0,0.2,0,0.3-0.1,0.5S10,52.9,9.9,53s-0.2,0.2-0.2,0.2
				S9.5,53.3,9.4,53.4L9.4,53.4z"/>
			<path class="st3" d="M11,56.4l2.3-5.6h0.9l2.3,5.6h-0.9L15,54.9h-2.5l-0.6,1.5H11z M13.7,51.7l-0.9,2.3h1.8L13.7,51.7z"/>
			<path class="st3" d="M22,50.7v5.6h-0.9v-4.8h-2.8v4.8h-0.9v-5.6H22z"/>
			<path class="st3" d="M24.2,55.6c-0.6-0.6-0.9-1.2-0.9-2s0.3-1.5,0.9-2s1.3-0.8,2.1-0.8s1.5,0.3,2.1,0.8s0.9,1.2,0.9,2
				s-0.3,1.5-0.9,2s-1.3,0.8-2.1,0.8S24.8,56.2,24.2,55.6z M24.9,52.1c-0.4,0.4-0.6,0.9-0.6,1.5s0.2,1.1,0.6,1.5s0.9,0.6,1.5,0.6
				s1.1-0.2,1.5-0.6s0.6-0.9,0.6-1.5s-0.2-1.1-0.6-1.5s-0.9-0.6-1.5-0.6S25.3,51.7,24.9,52.1z"/>
			<path class="st3" d="M33,56.4h-2.4v-5.6h2.3c0.5,0,0.8,0.1,1.2,0.4s0.5,0.6,0.5,1c0,0.2,0,0.4-0.1,0.6s-0.2,0.3-0.3,0.4L34,53.4
				c0,0,0.1,0,0.1,0.1s0.1,0.1,0.2,0.2s0.2,0.2,0.3,0.3s0.1,0.2,0.2,0.4s0.1,0.3,0.1,0.5c0,0.4-0.2,0.8-0.5,1.2S33.6,56.4,33,56.4z
				 M32.9,51.5h-1.4V53h1.4c0.2,0,0.4-0.1,0.5-0.2s0.2-0.3,0.2-0.5s-0.1-0.4-0.2-0.5S33.1,51.5,32.9,51.5z M31.5,55.6H33
				c0.3,0,0.5-0.1,0.7-0.3s0.3-0.4,0.3-0.7s-0.1-0.5-0.3-0.7s-0.4-0.3-0.7-0.3h-1.5V55.6z"/>
			<path class="st3" d="M37.1,55.5h3.2v0.8h-4v-5.6h4v0.8h-3.1V53h2.4v0.8h-2.4V55.5z"/>
			<path class="st3" d="M40.7,55.5H41c0,0,0.1-0.1,0.1-0.1s0.1-0.2,0.2-0.3s0.2-0.4,0.3-0.6s0.2-0.5,0.2-0.9s0.1-0.8,0.1-1.2v-1.7
				h3.6v4.8h0.7v2h-0.9v-1.2h-3.8v1.2h-0.9V55.5z M42.8,52.4c0,0.4,0,0.8-0.1,1.2s-0.1,0.7-0.2,0.9s-0.2,0.4-0.3,0.6
				S42,55.4,42,55.4l-0.1,0.1h2.8v-4h-1.9V52.4z"/>
			<path class="st3" d="M51.9,50.7v5.6H51v-2.4h-2.8v2.4h-0.9v-5.6h0.9v2.4H51v-2.4H51.9z"/>
			<path class="st3" d="M58.3,56.4h-0.9v-4l-3.1,4h-0.8v-5.6h0.9v4l3.1-4h0.8V56.4z"/>
			<path class="st3" d="M60.9,50.7v2.7l2.5-2.7h1.1l-2.2,2.3l2.3,3.3h-1.1l-1.8-2.6l-0.9,1v1.7H60v-5.6H60.9z"/>
		</g>
	</g>
</g>
</svg>
