<svg width="168" height="72" viewBox="0 0 168 72" fill="none" xmlns="http://www.w3.org/2000/svg">
<rect width="168" height="72" fill="black" fill-opacity="0"/>
<rect width="155.4" height="61.1" fill="black" fill-opacity="0" transform="translate(6.09998 5)"/>
<path d="M24.2 31.1L71.9 17.2L98.1 24.7L120 20.5V21.2L98.1 26.1L72.2 19.9L24.2 32V31.1ZM31.5 17.1L44.9 15.5L52.6 5L78 10.7L108.5 5.7L119.4 19L116.7 19.6L107.8 8.4L98.5 22.1L64.6 12.8L53.5 9.8L44 22.6L38.5 24.2L38.6 24L38.4 24.2L33 19.4L27.6 28.4L24.1 29.4L31.5 17.1Z" fill="#C15430"/>
<path d="M75 45.4V50H72V40.3H75V44.3L80 40.3H83.8L78.2 44.7L84 50H80L75 45.4Z" fill="#4A3E3C"/>
<path d="M87.5 50H84.5V40.3H91.8C92.7 40.3 93.4 40.4 94 40.5C94.6 40.7 95 40.9 95.4 41.2C95.8 41.5 96 41.8 96.1 42.2C96.2 42.6 96.3 43 96.3 43.4V43.5C96.3 43.9 96.2 44.3 96.1 44.7C96 45.1 95.7 45.4 95.4 45.7C95.1 46 94.6 46.2 94 46.4C93.4 46.6 92.7 46.7 91.8 46.7H87.5V50ZM87.5 44.6H91.7C92.2 44.6 92.5 44.5 92.8 44.3C93 44.1 93.1 43.9 93.1 43.5C93.1 43.2 93 42.9 92.8 42.7C92.6 42.5 92.2 42.4 91.7 42.4H87.5V44.6Z" fill="#4A3E3C"/>
<path d="M104.5 48.2H98.6L97.8 50H94.7L99.6 40.3H103.5L108.7 50H105.4L104.5 48.2ZM101.5 42.4L99.7 46H103.4L101.5 42.4Z" fill="#4A3E3C"/>
<path d="M114.4 50.2C113.5 50.2 112.7 50.1 112 50C111.3 49.8 110.7 49.6 110.3 49.4C109.8 49.1 109.4 48.8 109.1 48.5C108.8 48.2 108.6 47.8 108.4 47.5C108.2 47.2 108.1 46.8 108.1 46.4C108 46 108 45.7 108 45.4V45C108 44.7 108 44.4 108.1 44C108.2 43.6 108.3 43.3 108.4 42.9C108.6 42.5 108.8 42.2 109.1 41.9C109.4 41.6 109.8 41.3 110.3 41C110.8 40.7 111.4 40.5 112.1 40.4C112.8 40.2 113.6 40.2 114.6 40.2H115.1C116 40.2 116.8 40.3 117.5 40.4C118.2 40.5 118.8 40.7 119.2 40.9C119.6 41.1 120.1 41.4 120.4 41.6C120.7 41.9 120.9 42.2 121.1 42.4C121.3 42.7 121.4 43 121.4 43.2C121.5 43.5 121.5 43.7 121.5 43.9V44H118.3C118.3 43.9 118.2 43.8 118.2 43.6C118.1 43.4 118 43.2 117.7 43.1C117.5 42.9 117.1 42.7 116.6 42.6C116.1 42.5 115.5 42.4 114.8 42.4C114.1 42.4 113.5 42.5 113 42.6C112.5 42.7 112.2 42.9 111.9 43.2C111.6 43.4 111.5 43.7 111.4 44C111.3 44.3 111.3 44.6 111.3 44.9V45.1C111.3 45.4 111.4 45.7 111.5 46C111.6 46.3 111.8 46.6 112.1 46.9C112.4 47.2 112.7 47.4 113.2 47.5C113.7 47.6 114.2 47.8 114.9 47.8C115.7 47.8 116.3 47.7 116.8 47.6C117.3 47.5 117.6 47.3 117.9 47.1C118.1 46.9 118.3 46.7 118.4 46.5C118.5 46.3 118.5 46.2 118.5 46.1H121.7V46.2C121.7 46.4 121.7 46.6 121.6 46.9C121.5 47.2 121.4 47.5 121.2 47.8C121 48.1 120.8 48.4 120.5 48.7C120.2 49 119.8 49.2 119.3 49.5C118.8 49.7 118.2 49.9 117.6 50C116.9 50.1 116.1 50.2 115.2 50.2H114.4Z" fill="#4A3E3C"/>
<path d="M122.4 40.3H125.4V43.8H131.9V40.3H134.9V50H131.9V46.2H125.4V50H122.4V40.3Z" fill="#4A3E3C"/>
<path d="M145.2 48.2H139.3L138.4 50H135.3L140.2 40.3H144.1L149.3 50H146L145.2 48.2ZM142.3 42.4L140.5 46H144.2L142.3 42.4Z" fill="#4A3E3C"/>
<path d="M156.6 46.6L153 50H149.1L153 46.4C152.4 46.4 151.8 46.3 151.3 46.1C150.8 45.9 150.5 45.7 150.2 45.5C149.9 45.2 149.7 45 149.6 44.6C149.5 44.3 149.4 43.9 149.4 43.5V43.3C149.4 42.9 149.5 42.5 149.6 42.2C149.7 41.8 150 41.5 150.3 41.2C150.6 40.9 151.1 40.7 151.6 40.5C152.1 40.3 152.8 40.2 153.6 40.2H161.5V50H158.5V46.6H156.6ZM158.6 42.5H153.9C153.5 42.5 153.1 42.6 153 42.8C152.8 43 152.7 43.2 152.7 43.5C152.7 43.8 152.8 44 153 44.2C153.2 44.4 153.5 44.5 153.9 44.5H158.6V42.5Z" fill="#4A3E3C"/>
<path d="M72 56.4H81.7V58.7H75V66H72V56.4Z" fill="#4A3E3C"/>
<path d="M89.7 56.2C90.7 56.2 91.6 56.3 92.3 56.4C93 56.6 93.6 56.8 94.2 57C94.7 57.3 95.1 57.6 95.4 57.9C95.7 58.2 95.9 58.6 96.1 58.9C96.3 59.2 96.4 59.6 96.4 60C96.5 60.4 96.5 60.7 96.5 61V61.4C96.5 61.7 96.5 62 96.4 62.3C96.3 62.6 96.2 63 96.1 63.4C96 63.8 95.7 64.1 95.4 64.4C95.1 64.7 94.7 65 94.2 65.3C93.7 65.6 93.1 65.8 92.3 65.9C91.5 66 90.7 66.1 89.7 66.1H89.1C88.1 66.1 87.2 66 86.5 65.9C85.8 65.8 85.2 65.5 84.6 65.3C84.1 65 83.7 64.7 83.4 64.4C83.1 64.1 82.9 63.7 82.7 63.4C82.5 63.1 82.4 62.7 82.4 62.3C82.3 62 82.3 61.6 82.3 61.4V61C82.3 60.7 82.3 60.4 82.4 60C82.5 59.6 82.6 59.3 82.7 58.9C82.8 58.5 83.1 58.2 83.4 57.9C83.7 57.6 84.1 57.3 84.6 57C85.1 56.7 85.7 56.5 86.5 56.4C87.2 56.2 88.1 56.2 89.1 56.2H89.7ZM93.3 61.1C93.3 60.8 93.2 60.5 93.2 60.2C93.1 59.9 92.9 59.6 92.6 59.4C92.3 59.2 91.9 58.9 91.4 58.8C90.9 58.6 90.2 58.6 89.4 58.6C88.6 58.6 87.9 58.7 87.4 58.8C86.9 59 86.5 59.2 86.2 59.4C85.9 59.6 85.7 59.9 85.6 60.2C85.5 60.5 85.5 60.8 85.5 61.1V61.3C85.5 61.6 85.5 61.9 85.6 62.2C85.7 62.5 85.9 62.8 86.2 63.1C86.5 63.4 86.9 63.6 87.4 63.7C87.9 63.8 88.6 64 89.4 64C90.2 64 90.9 63.9 91.4 63.8C91.9 63.6 92.3 63.4 92.6 63.2C92.9 63 93.1 62.7 93.2 62.4C93.3 62.1 93.4 61.8 93.4 61.5V61.1H93.3Z" fill="#4A3E3C"/>
<path d="M100.6 66H97.6V56.3H104.9C105.8 56.3 106.5 56.4 107.1 56.5C107.7 56.7 108.1 56.9 108.5 57.2C108.8 57.5 109.1 57.8 109.2 58.2C109.3 58.6 109.4 59 109.4 59.4V59.5C109.4 59.9 109.3 60.3 109.2 60.7C109.1 61.1 108.8 61.4 108.5 61.7C108.2 62 107.7 62.2 107.1 62.4C106.5 62.6 105.8 62.7 104.9 62.7H100.6V66ZM100.6 60.7H104.8C105.3 60.7 105.6 60.6 105.9 60.4C106.1 60.2 106.2 60 106.2 59.6C106.2 59.3 106.1 59 105.9 58.8C105.7 58.6 105.3 58.5 104.8 58.5H100.6V60.7Z" fill="#4A3E3C"/>
<path d="M113.2 61.5V66.1H110.2V56.4H113.2V60.4L118.2 56.4H122L116.4 60.8L122.2 66.1H118.2L113.2 61.5Z" fill="#4A3E3C"/>
<path d="M131.8 64.3H125.9L125 66.1H122L126.9 56.4H130.8L136 66.1H132.7L131.8 64.3ZM128.8 58.5L127 62.1H130.7L128.8 58.5Z" fill="#4A3E3C"/>
<path d="M39.3 43.1L41.5 40.4H42.3V46H41.4V41.9L39.4 44.5L37.4 41.9V46H36.5V40.4H37.3L39.3 43.1Z" fill="#4A3E3C"/>
<path d="M44.2 40.3L45.7 43.2L47.1 40.3H48L46 44.5C45.8 45 45.5 45.4 45.2 45.6C44.9 45.8 44.6 46 44.2 46C44.1 46 44 46 43.9 46C43.8 46 43.7 46 43.7 45.9H43.6V45.1C43.7 45.2 43.9 45.2 44.1 45.2C44.4 45.2 44.6 45.1 44.7 45C44.8 44.9 45 44.7 45.1 44.5L45.3 44.1L43.3 40.3H44.2Z" fill="#4A3E3C"/>
<path d="M51.5 43H51.6C51.6 43 51.7 43.1 51.8 43.1C51.9 43.1 52 43.3 52.1 43.3C52.2 43.3 52.3 43.5 52.3 43.7C52.3 43.9 52.4 44 52.4 44.2C52.4 44.7 52.2 45.1 51.8 45.4C51.4 45.7 51 46 50.4 46C50.1 46 49.9 46 49.6 45.9C49.3 45.8 49.1 45.8 49 45.7C48.9 45.6 48.7 45.5 48.6 45.4C48.5 45.3 48.4 45.2 48.3 45.2L48.2 45.1L48.8 44.5C48.8 44.5 48.8 44.5 48.9 44.6C49 44.7 49 44.7 49.1 44.8C49.2 44.9 49.3 44.9 49.4 45C49.5 45.1 49.7 45.1 49.8 45.2C49.9 45.3 50.2 45.3 50.4 45.3C50.8 45.3 51.1 45.2 51.3 45C51.5 44.8 51.6 44.6 51.6 44.3C51.6 44 51.5 43.8 51.3 43.6C51.1 43.4 50.8 43.3 50.4 43.3H49.7V42.5H50.4C50.7 42.5 51 42.4 51.2 42.3C51.4 42.2 51.5 42 51.5 41.8C51.5 41.6 51.4 41.4 51.2 41.3C51 41.2 50.8 41.1 50.4 41.1C50.2 41.1 49.9 41.2 49.7 41.3C49.5 41.4 49.3 41.5 49.2 41.6L49 41.7L48.4 41.1C48.4 41.1 48.4 41.1 48.5 41C48.6 40.9 48.6 40.9 48.7 40.8C48.8 40.7 49 40.6 49.1 40.5C49.2 40.4 49.4 40.4 49.6 40.3C49.8 40.2 50 40.2 50.3 40.2C50.9 40.2 51.4 40.3 51.7 40.6C52 40.9 52.2 41.2 52.2 41.7C52.2 41.9 52.2 42 52.1 42.2C52 42.4 52 42.5 51.9 42.6C51.8 42.7 51.7 42.8 51.7 42.8C51.7 42.8 51.6 42.9 51.5 43Z" fill="#4A3E3C"/>
<path d="M54.8 45.1H58V46H54V40.4H58V41.2H54.9V42.7H57.3V43.5H54.9V45.1H54.8Z" fill="#4A3E3C"/>
<path d="M63.9 46H63V42L59.9 46H59.1V40.4H60V44.4L63.1 40.4H63.9V46ZM61.2 38.9C61.3 39 61.4 39.1 61.6 39.1C61.8 39.1 61.9 39 62 38.9C62.1 38.8 62.2 38.7 62.2 38.5H62.8C62.8 38.8 62.7 39.1 62.5 39.3C62.3 39.5 62 39.6 61.7 39.6C61.4 39.6 61.1 39.5 60.9 39.3C60.7 39.1 60.6 38.8 60.6 38.5H61C61 38.7 61.1 38.8 61.2 38.9Z" fill="#4A3E3C"/>
<path d="M9.39998 53.4H9.49998C9.49998 53.4 9.59998 53.5 9.69998 53.5C9.79998 53.5 9.89998 53.7 9.99998 53.7C10.1 53.7 10.2 53.9 10.2 54.1C10.2 54.3 10.3 54.4 10.3 54.6C10.3 55.1 10.1 55.5 9.69998 55.8C9.29998 56.1 8.79998 56.3 8.09998 56.3C7.79998 56.3 7.59998 56.3 7.29998 56.2C6.99998 56.1 6.99998 56.2 6.89998 56.1C6.79998 56 6.59998 55.9 6.49998 55.8C6.39998 55.7 6.29998 55.6 6.19998 55.6L6.09998 55.5L6.69998 55C6.69998 55 6.69998 55 6.79998 55.1C6.89998 55.2 6.89998 55.2 6.99998 55.3C7.09998 55.4 7.19998 55.4 7.29998 55.5C7.39998 55.6 7.59998 55.6 7.69998 55.7C7.79998 55.8 8.09998 55.8 8.29998 55.8C8.69998 55.8 8.99998 55.7 9.19998 55.5C9.39998 55.3 9.49998 55.1 9.49998 54.8C9.49998 54.5 9.39998 54.3 9.19998 54.1C8.99998 53.9 8.69998 53.8 8.29998 53.8H7.59998V53H8.29998C8.59998 53 8.89998 52.9 9.09998 52.8C9.29998 52.7 9.39998 52.5 9.39998 52.3C9.39998 52.1 9.29998 51.9 9.09998 51.8C8.89998 51.7 8.69998 51.6 8.29998 51.6C8.09998 51.6 7.79998 51.7 7.59998 51.8C7.39998 51.9 7.19998 52 7.09998 52.1L6.89998 52.3L6.29998 51.7C6.29998 51.7 6.29998 51.7 6.39998 51.6C6.49998 51.5 6.49998 51.5 6.59998 51.4C6.69998 51.3 6.89998 51 7.09998 51C7.29998 51 7.39998 50.9 7.59998 50.8C7.79998 50.7 7.99998 50.7 8.29998 50.7C8.89998 50.7 9.39998 50.8 9.69998 51.1C9.99998 51.4 10.2 51.7 10.2 52.2C10.2 52.4 10.2 52.5 10.1 52.7C9.99998 52.9 9.99998 52.9 9.89998 53C9.79998 53.1 9.69998 53.2 9.69998 53.2C9.69998 53.2 9.49998 53.3 9.39998 53.4Z" fill="#4A3E3C"/>
<path d="M11 56.4L13.3 50.8H14.2L16.5 56.4H15.6L15 54.9H12.5L11.9 56.4H11ZM13.7 51.7L12.8 54H14.6L13.7 51.7Z" fill="#4A3E3C"/>
<path d="M22 50.7V56.3H21.1V51.5H18.3V56.3H17.4V50.7H22Z" fill="#4A3E3C"/>
<path d="M24.2 55.6C23.6 55 23.3 54.4 23.3 53.6C23.3 52.8 23.6 52.1 24.2 51.6C24.8 51.1 25.5 50.8 26.3 50.8C27.1 50.8 27.8 51.1 28.4 51.6C29 52.1 29.3 52.8 29.3 53.6C29.3 54.4 29 55.1 28.4 55.6C27.8 56.1 27.1 56.4 26.3 56.4C25.5 56.4 24.8 56.2 24.2 55.6ZM24.9 52.1C24.5 52.5 24.3 53 24.3 53.6C24.3 54.2 24.5 54.7 24.9 55.1C25.3 55.5 25.8 55.7 26.4 55.7C27 55.7 27.5 55.5 27.9 55.1C28.3 54.7 28.5 54.2 28.5 53.6C28.5 53 28.3 52.5 27.9 52.1C27.5 51.7 27 51.5 26.4 51.5C25.8 51.5 25.3 51.7 24.9 52.1Z" fill="#4A3E3C"/>
<path d="M33 56.4H30.6V50.8H32.9C33.4 50.8 33.7 50.9 34.1 51.2C34.5 51.5 34.6 51.8 34.6 52.2C34.6 52.4 34.6 52.6 34.5 52.8C34.4 53 34.3 53.1 34.2 53.2L34 53.4C34 53.4 34.1 53.4 34.1 53.5C34.1 53.6 34.2 53.6 34.3 53.7C34.4 53.8 34.5 53.9 34.6 54C34.7 54.1 34.7 54.2 34.8 54.4C34.9 54.6 34.9 54.7 34.9 54.9C34.9 55.3 34.7 55.7 34.4 56.1C34.1 56.5 33.6 56.4 33 56.4ZM32.9 51.5H31.5V53H32.9C33.1 53 33.3 52.9 33.4 52.8C33.5 52.7 33.6 52.5 33.6 52.3C33.6 52.1 33.5 51.9 33.4 51.8C33.3 51.7 33.1 51.5 32.9 51.5ZM31.5 55.6H33C33.3 55.6 33.5 55.5 33.7 55.3C33.9 55.1 34 54.9 34 54.6C34 54.3 33.9 54.1 33.7 53.9C33.5 53.7 33.3 53.6 33 53.6H31.5V55.6Z" fill="#4A3E3C"/>
<path d="M37.1 55.5H40.3V56.3H36.3V50.7H40.3V51.5H37.2V53H39.6V53.8H37.2V55.5H37.1Z" fill="#4A3E3C"/>
<path d="M41 55.5L41.1 55.4C41.1 55.4 41.2 55.2 41.3 55.1C41.4 55 41.5 54.7 41.6 54.5C41.7 54.3 41.8 54 41.8 53.6C41.8 53.2 41.9 52.8 41.9 52.4V50.7H45.5V55.5H46.2V57.5H45.3V56.3H41.5V57.5H40.6V55.5H41ZM42.8 52.4C42.8 52.8 42.8 53.2 42.7 53.6C42.6 54 42.6 54.3 42.5 54.5C42.4 54.7 42.3 54.9 42.2 55.1C42.1 55.3 42 55.4 42 55.4L41.9 55.5H44.7V51.5H42.8V52.4Z" fill="#4A3E3C"/>
<path d="M51.9 50.7V56.3H51V53.9H48.2V56.3H47.3V50.7H48.2V53.1H51V50.7H51.9Z" fill="#4A3E3C"/>
<path d="M58.3 56.4H57.4V52.4L54.3 56.4H53.5V50.8H54.4V54.8L57.5 50.8H58.3V56.4Z" fill="#4A3E3C"/>
<path d="M60.9 50.7V53.4L63.4 50.7H64.5L62.3 53L64.6 56.3H63.5L61.7 53.7L60.8 54.7V56.4H60V50.8H60.9V50.7Z" fill="#4A3E3C"/>
</svg>
