<svg width="24" height="24" viewBox="0 0 24 24" fill="none" xmlns="http://www.w3.org/2000/svg">
<path d="M13.4688 11.5469C13.2604 11.6354 13.0391 11.6797 12.8047 11.6797H10.7188V8.32031H12.8047C13.0391 8.32031 13.2604 8.36719 13.4688 8.46094C13.6771 8.54948 13.8542 8.67188 14 8.82812C14.1511 8.97917 14.2682 9.15625 14.3516 9.35938C14.4401 9.5625 14.4844 9.77605 14.4844 10C14.4844 10.224 14.4401 10.4375 14.3516 10.6406C14.2682 10.8438 14.1511 11.0234 14 11.1797C13.8542 11.3307 13.6771 11.4531 13.4688 11.5469Z" fill="#AF9188"/>
<path fill-rule="evenodd" clip-rule="evenodd" d="M12 24C18.6274 24 24 18.6274 24 12C24 5.37259 18.6274 0 12 0C5.37256 0 0 5.37259 0 12C0 18.6274 5.37256 24 12 24ZM15.7578 11.1562C15.9193 10.7917 16 10.4062 16 10C16 9.60417 15.9193 9.22395 15.7578 8.85938C15.6016 8.48958 15.3776 8.16406 15.0859 7.88281C14.7995 7.59636 14.4609 7.37239 14.0703 7.21094C13.6849 7.04427 13.263 6.96094 12.8047 6.96094H9.20312V11.6797H8V13.0391H9.20312V14.0781H8V15.4375H9.20312V17.0391H10.7188V15.4375H13.7578V14.0781H10.7188V13.0391H12.8047C13.263 13.0391 13.6849 12.9583 14.0703 12.7969C14.4609 12.6302 14.7995 12.4062 15.0859 12.125C15.3776 11.8385 15.6016 11.5156 15.7578 11.1562Z" fill="#AF9188"/>
</svg>
